<?xml version="1.0" encoding="iso-8859-1"?>
<!-- Uploaded to: SVG Repo, www.svgrepo.com, Generator: SVG Repo Mixer Tools -->
<svg version="1.1" id="Layer_1" xmlns="http://www.w3.org/2000/svg" xmlns:xlink="http://www.w3.org/1999/xlink" 
	 viewBox="0 0 512 512" xml:space="preserve">
<path style="fill:#CCCCCF;" d="M256,136.8c-18.527,0-33.598-15.072-33.598-33.598c0-18.525,15.072-33.598,33.598-33.598
	s33.598,15.072,33.598,33.598S274.527,136.8,256,136.8z"/>
<path style="fill:#AAA9AF;" d="M256,136.8c0-17.813,0-58.032,0-67.197c18.527,0,33.598,15.072,33.598,33.598
	S274.527,136.8,256,136.8z"/>
<path style="fill:#DDDCDF;" d="M497.03,378.017H14.97v-18.002c0-132.903,108.124-241.028,241.03-241.028
	s241.03,108.124,241.03,241.028V378.017z"/>
<path style="fill:#CCCCCF;" d="M497.03,378.017H256c0,0,0-200.597,0-259.031c132.904,0,241.03,108.124,241.03,241.028V378.017z"/>
<path style="fill:#E05323;" d="M497.03,442.397H14.97v-70.496H497.03L497.03,442.397L497.03,442.397z"/>
<path style="fill:#A5401D;" d="M497.03,442.397H256v-70.496h241.03V442.397z"/>
<rect y="355.206" style="fill:#E3744E;" width="512" height="33.391"/>
<rect x="256" y="355.206" style="fill:#E05323;" width="256" height="33.391"/>
</svg>